<!--?xml version="1.0" encoding="utf-8"?-->
<!-- Generator: Adobe Illustrator 18.1.1, SVG Export Plug-In . SVG Version: 6.00 Build 0)  -->

<svg version="1.1" id="_x32_" xmlns="http://www.w3.org/2000/svg" xmlns:xlink="http://www.w3.org/1999/xlink" x="0px" y="0px" viewBox="0 0 512 512" style="width: 256px; height: 256px; opacity: 1;" xml:space="preserve">
<style type="text/css">
	.st0{fill:#4B4B4B;}
</style>
<g>
	<path class="st0" d="M139.748,425.913c-17.286-5.507-34.571-3.84-45.38,3.18c4.097,11.734,16.801,22.896,34.087,28.381
		c17.286,5.493,34.571,3.84,45.38-3.186C169.737,442.56,157.034,431.376,139.748,425.913z" style="fill: rgb(75, 75, 75);"></path>
	<path class="st0" d="M126.604,407.32c8.473-8.768,12.659-23.976,9.84-40.116c-2.82-16.133-11.896-28.888-22.808-34.05
		c-8.474,8.76-12.675,23.976-9.84,40.115C106.616,389.396,115.692,402.172,126.604,407.32z" style="fill: rgb(75, 75, 75);"></path>
	<path class="st0" d="M68.403,359.406c-14.937-9.421-31.87-11.925-44.147-7.718c0.572,12.322,9.516,26.127,24.438,35.549
		c14.921,9.414,31.854,11.917,44.147,7.703C92.253,382.61,83.323,368.827,68.403,359.406z" style="fill: rgb(75, 75, 75);"></path>
	<path class="st0" d="M79.27,273.785c-9.282,6.843-15.567,20.406-15.494,35.885c0.088,15.48,6.521,28.778,15.861,35.247
		c9.282-6.858,15.568-20.406,15.494-35.893C95.043,293.553,88.611,280.262,79.27,273.785z" style="fill: rgb(75, 75, 75);"></path>
	<path class="st0" d="M55.141,248.649c11.411-2.32,23.175-11.94,30.092-25.972c6.932-14.033,7.152-28.734,1.704-38.486
		c-11.426,2.328-23.19,11.94-30.107,25.988C49.897,224.196,49.663,238.905,55.141,248.649z" style="fill: rgb(75, 75, 75);"></path>
	<path class="st0" d="M38.427,213.19c8.606-6.888,14.084-20.069,13.394-34.873c-0.69-14.804-7.373-27.273-16.581-33.132
		c-8.606,6.881-14.099,20.054-13.409,34.866C22.522,194.846,29.219,207.33,38.427,213.19z" style="fill: rgb(75, 75, 75);"></path>
	<path class="st0" d="M124.636,116.914c-10.516-1.05-23.63,4.148-33.985,14.488c-10.339,10.339-15.156,23.058-13.54,32.993
		c10.53,1.05,23.63-4.148,33.984-14.488C121.434,139.567,126.251,126.863,124.636,116.914z" style="fill: rgb(75, 75, 75);"></path>
	<path class="st0" d="M93.325,106.472c4.479-12.528,3.26-24.938-2.262-32.604c-9.384,3.113-18.372,12.403-22.852,24.938
		c-4.479,12.512-3.275,24.93,2.261,32.596C79.857,128.273,88.83,118.999,93.325,106.472z" style="fill: rgb(75, 75, 75);"></path>
	<path class="st0" d="M144.139,82.048c9.678-9.583,14.216-21.391,12.747-30.666c-9.781-1.006-22,3.775-31.692,13.365
		c-9.664,9.575-14.202,21.398-12.748,30.65C122.242,96.419,134.461,91.638,144.139,82.048z" style="fill: rgb(75, 75, 75);"></path>
	<path class="st0" d="M34.932,262.477c-8.459-13.012-21.192-20.928-32.736-21.641c-4.274,10.486-2.35,25.099,6.11,38.096
		c8.444,13.005,21.178,20.928,32.736,21.633C45.301,290.072,43.377,275.466,34.932,262.477z" style="fill: rgb(75, 75, 75);"></path>
	<path class="st0" d="M372.247,425.913c-17.286,5.464-29.975,16.647-34.087,28.374c10.809,7.027,28.094,8.68,45.38,3.186
		c17.301-5.485,29.99-16.647,34.087-28.381C406.818,422.072,389.547,420.406,372.247,425.913z" style="fill: rgb(75, 75, 75);"></path>
	<path class="st0" d="M375.566,367.204c-2.82,16.14,1.35,31.348,9.84,40.116c10.912-5.148,19.988-17.925,22.808-34.051
		c2.82-16.14-1.381-31.355-9.855-40.115C387.447,338.316,378.386,351.072,375.566,367.204z" style="fill: rgb(75, 75, 75);"></path>
	<path class="st0" d="M443.607,359.406c-14.922,9.421-23.865,23.204-24.453,35.534c12.293,4.214,29.241,1.711,44.147-7.703
		c14.936-9.422,23.88-23.227,24.453-35.549C475.477,347.481,458.529,349.985,443.607,359.406z" style="fill: rgb(75, 75, 75);"></path>
	<path class="st0" d="M432.74,273.785c-9.341,6.476-15.788,19.768-15.862,35.24c-0.088,15.487,6.212,29.034,15.464,35.893
		c9.356-6.469,15.788-19.768,15.876-35.247C448.307,294.191,442.007,280.628,432.74,273.785z" style="fill: rgb(75, 75, 75);"></path>
	<path class="st0" d="M425.073,184.191c-5.463,9.752-5.243,24.453,1.69,38.486c6.917,14.032,18.695,23.652,30.107,25.972
		c5.463-9.744,5.228-24.453-1.689-38.47C448.263,196.131,436.484,186.519,425.073,184.191z" style="fill: rgb(75, 75, 75);"></path>
	<path class="st0" d="M473.582,213.19c9.208-5.86,15.906-18.344,16.581-33.14c0.704-14.812-4.788-27.985-13.394-34.866
		c-9.208,5.86-15.89,18.328-16.58,33.132C459.483,193.12,464.976,206.302,473.582,213.19z" style="fill: rgb(75, 75, 75);"></path>
	<path class="st0" d="M434.883,164.394c1.63-9.935-3.201-22.654-13.54-32.993c-10.354-10.339-23.454-15.538-33.985-14.488
		c-1.615,9.95,3.202,22.654,13.556,32.993C411.254,160.246,424.353,165.444,434.883,164.394z" style="fill: rgb(75, 75, 75);"></path>
	<path class="st0" d="M441.537,131.401c5.522-7.666,6.741-20.084,2.247-32.596c-4.479-12.535-13.452-21.824-22.852-24.938
		c-5.522,7.666-6.727,20.076-2.248,32.604C423.179,118.999,432.137,128.273,441.537,131.401z" style="fill: rgb(75, 75, 75);"></path>
	<path class="st0" d="M399.548,95.398c1.469-9.252-3.069-21.074-12.748-30.65c-9.678-9.59-21.897-14.371-31.678-13.365
		c-1.484,9.274,3.07,21.082,12.748,30.666C377.534,91.638,389.753,96.419,399.548,95.398z" style="fill: rgb(75, 75, 75);"></path>
	<path class="st0" d="M509.813,240.836c-11.558,0.713-24.276,8.628-32.736,21.641c-8.46,12.99-10.369,27.595-6.11,38.088
		c11.543-0.705,24.29-8.628,32.736-21.633C512.148,265.935,514.072,251.322,509.813,240.836z" style="fill: rgb(75, 75, 75);"></path>
	<path class="st0" d="M315.895,287.385h-11.764c-1.043,0-1.571-0.522-1.571-1.564v-38.464c0-1.572-1.072-2.607-2.629-2.607
		l-30.342,0.015c-1.586,0-2.614,1.036-2.614,2.607v38.463c0,1.043-0.514,1.564-1.572,1.564l-32.692,0.008v-0.786l53.326-116.954
		c0.528-1.571,0-2.607-1.821-2.607l-33.22,0.008c-1.836,0-2.879,0.521-3.672,2.085l-53.341,117.483
		c-0.514,1.05-0.514,2.093-0.514,3.142v26.686c0,1.571,1.058,2.614,2.629,2.606l69.319-0.014c1.043,0,1.571,0.521,1.571,1.572
		v21.714c0,1.571,1.043,2.606,2.629,2.606l30.342-0.014c1.556,0,2.614-1.036,2.614-2.607v-21.714c0-1.05,0.514-1.572,1.572-1.572
		h11.764c1.572,0,2.614-1.042,2.614-2.614l-0.014-26.421C318.51,288.434,317.467,287.385,315.895,287.385z" style="fill: rgb(75, 75, 75);"></path>
</g>
</svg>
