<!--?xml version="1.0" encoding="utf-8"?-->
<!-- Generator: Adobe Illustrator 18.1.1, SVG Export Plug-In . SVG Version: 6.00 Build 0)  -->

<svg version="1.1" id="_x32_" xmlns="http://www.w3.org/2000/svg" xmlns:xlink="http://www.w3.org/1999/xlink" x="0px" y="0px" viewBox="0 0 512 512" style="width: 256px; height: 256px; opacity: 1;" xml:space="preserve">
<style type="text/css">
	.st0{fill:#4B4B4B;}
</style>
<g>
	<path class="st0" d="M139.748,425.913c-17.286-5.507-34.572-3.84-45.381,3.18c4.098,11.734,16.801,22.896,34.087,28.381
		c17.286,5.493,34.572,3.84,45.381-3.186C169.738,442.56,157.034,431.376,139.748,425.913z" style="fill: rgb(75, 75, 75);"></path>
	<path class="st0" d="M126.604,407.32c8.474-8.768,12.66-23.976,9.84-40.116c-2.82-16.133-11.896-28.888-22.808-34.05
		c-8.474,8.76-12.674,23.976-9.84,40.115C106.616,389.396,115.692,402.172,126.604,407.32z" style="fill: rgb(75, 75, 75);"></path>
	<path class="st0" d="M68.402,359.406c-14.936-9.421-31.87-11.925-44.147-7.718c0.573,12.322,9.517,26.127,24.438,35.549
		c14.922,9.414,31.854,11.918,44.147,7.703C92.253,382.61,83.324,368.827,68.402,359.406z" style="fill: rgb(75, 75, 75);"></path>
	<path class="st0" d="M79.27,273.785c-9.282,6.843-15.567,20.406-15.494,35.886c0.088,15.479,6.521,28.778,15.861,35.247
		c9.282-6.858,15.568-20.406,15.494-35.893C95.044,293.553,88.611,280.262,79.27,273.785z" style="fill: rgb(75, 75, 75);"></path>
	<path class="st0" d="M55.14,248.649c11.412-2.32,23.176-11.94,30.092-25.972c6.932-14.033,7.153-28.734,1.704-38.486
		c-11.426,2.328-23.19,11.94-30.108,25.988C49.898,224.196,49.662,238.905,55.14,248.649z" style="fill: rgb(75, 75, 75);"></path>
	<path class="st0" d="M38.428,213.19c8.606-6.888,14.084-20.069,13.393-34.873c-0.69-14.804-7.372-27.273-16.58-33.133
		c-8.607,6.881-14.099,20.054-13.409,34.866C22.522,194.846,29.22,207.33,38.428,213.19z" style="fill: rgb(75, 75, 75);"></path>
	<path class="st0" d="M124.636,116.914c-10.515-1.05-23.63,4.148-33.984,14.488c-10.339,10.339-15.156,23.057-13.541,32.993
		c10.53,1.05,23.63-4.148,33.984-14.488C121.434,139.567,126.252,126.863,124.636,116.914z" style="fill: rgb(75, 75, 75);"></path>
	<path class="st0" d="M93.325,106.472c4.48-12.528,3.261-24.938-2.262-32.604c-9.385,3.113-18.373,12.402-22.852,24.937
		c-4.479,12.512-3.274,24.93,2.262,32.596C79.857,128.273,88.831,118.999,93.325,106.472z" style="fill: rgb(75, 75, 75);"></path>
	<path class="st0" d="M144.14,82.048c9.678-9.583,14.216-21.391,12.748-30.666c-9.781-1.006-22,3.775-31.694,13.365
		c-9.663,9.575-14.201,21.398-12.748,30.65C122.243,96.419,134.462,91.638,144.14,82.048z" style="fill: rgb(75, 75, 75);"></path>
	<path class="st0" d="M34.932,262.477c-8.459-13.012-21.192-20.928-32.736-21.641c-4.273,10.486-2.35,25.099,6.11,38.096
		c8.445,13.005,21.178,20.928,32.736,21.633C45.3,290.072,43.377,275.466,34.932,262.477z" style="fill: rgb(75, 75, 75);"></path>
	<path class="st0" d="M372.247,425.913c-17.286,5.464-29.974,16.647-34.087,28.374c10.809,7.027,28.095,8.68,45.381,3.186
		c17.3-5.485,29.989-16.647,34.087-28.381C406.819,422.072,389.548,420.406,372.247,425.913z" style="fill: rgb(75, 75, 75);"></path>
	<path class="st0" d="M375.566,367.204c-2.82,16.14,1.351,31.348,9.84,40.116c10.912-5.148,19.988-17.925,22.808-34.051
		c2.82-16.14-1.38-31.355-9.854-40.115C387.447,338.316,378.386,351.072,375.566,367.204z" style="fill: rgb(75, 75, 75);"></path>
	<path class="st0" d="M443.607,359.406c-14.92,9.421-23.865,23.204-24.452,35.534c12.292,4.215,29.24,1.711,44.147-7.703
		c14.936-9.422,23.88-23.227,24.452-35.549C475.477,347.481,458.529,349.985,443.607,359.406z" style="fill: rgb(75, 75, 75);"></path>
	<path class="st0" d="M432.74,273.785c-9.34,6.476-15.788,19.768-15.861,35.24c-0.088,15.487,6.212,29.034,15.464,35.893
		c9.355-6.469,15.788-19.768,15.876-35.247C448.307,294.191,442.007,280.628,432.74,273.785z" style="fill: rgb(75, 75, 75);"></path>
	<path class="st0" d="M425.074,184.191c-5.464,9.752-5.243,24.453,1.689,38.486c6.917,14.032,18.696,23.652,30.107,25.972
		c5.464-9.744,5.228-24.453-1.689-38.47C448.263,196.131,436.485,186.519,425.074,184.191z" style="fill: rgb(75, 75, 75);"></path>
	<path class="st0" d="M473.583,213.19c9.208-5.86,15.905-18.344,16.581-33.14c0.704-14.812-4.788-27.985-13.394-34.866
		c-9.208,5.86-15.89,18.329-16.581,33.133C459.484,193.12,464.976,206.302,473.583,213.19z" style="fill: rgb(75, 75, 75);"></path>
	<path class="st0" d="M434.884,164.394c1.63-9.936-3.202-22.654-13.541-32.993c-10.354-10.339-23.454-15.538-33.984-14.488
		c-1.616,9.95,3.202,22.654,13.555,32.993C411.254,160.246,424.354,165.444,434.884,164.394z" style="fill: rgb(75, 75, 75);"></path>
	<path class="st0" d="M441.537,131.401c5.522-7.666,6.74-20.084,2.247-32.596c-4.479-12.535-13.453-21.824-22.852-24.937
		c-5.522,7.666-6.726,20.076-2.247,32.604C423.179,118.999,432.138,128.273,441.537,131.401z" style="fill: rgb(75, 75, 75);"></path>
	<path class="st0" d="M399.549,95.398c1.468-9.252-3.07-21.074-12.748-30.65c-9.679-9.59-21.898-14.371-31.678-13.365
		c-1.484,9.274,3.069,21.082,12.748,30.666C377.534,91.638,389.753,96.419,399.549,95.398z" style="fill: rgb(75, 75, 75);"></path>
	<path class="st0" d="M509.813,240.836c-11.558,0.713-24.276,8.628-32.736,21.641c-8.459,12.99-10.368,27.595-6.109,38.088
		c11.544-0.705,24.291-8.628,32.735-21.633C512.149,265.935,514.072,251.322,509.813,240.836z" style="fill: rgb(75, 75, 75);"></path>
	<path class="st0" d="M262.159,224.99c-13.35,0.008-22.25,4.465-26.685,8.386h-0.793v-35.049c0-1.05,0.528-1.572,1.571-1.572
		l68.277-0.014c1.571,0,2.614-1.05,2.6-2.622V168.22c0-1.571-1.043-2.607-2.614-2.607l-99.412,0.029
		c-1.572,0-2.614,1.036-2.614,2.607l0.029,97.847c0,1.564,1.043,2.615,2.614,2.615l28.007-0.008c1.821-0.008,2.6-0.793,3.393-2.621
		c2.614-5.229,8.371-10.208,18.05-10.208c8.635-0.007,15.7,3.393,18.578,12.292c1.572,4.186,2.085,8.893,2.085,17.521
		c0,8.122-0.499,13.078-2.071,17.278c-2.614,8.371-9.678,12.55-18.578,12.557c-11.25,0-17.521-6.278-20.663-14.65
		c-0.528-1.572-1.572-2.342-3.143-2.092l-28.256,5.507c-1.572,0.264-2.35,1.571-2.085,2.878
		c3.128,23.278,24.335,39.234,54.692,39.227c25.378-0.007,45.498-11.521,52.562-33.242c2.35-7.328,3.922-16.485,3.907-27.734
		c0-14.907-1.308-23.028-3.657-30.342C301.386,235.19,284.908,224.982,262.159,224.99z" style="fill: rgb(75, 75, 75);"></path>
</g>
</svg>
